<svg viewBox="0 0 100 100" xmlns="http://www.w3.org/2000/svg">
  <g transform="translate(0, 5)">
    <circle cx="35" cy="22" r="14" fill="#4A90A4"/>
    <path d="M 35 40 C 15 40 10 65 10 90 L 30 90 C 30 65 40 55 55 55 C 75 55 85 70 85 90 L 98 90 C 98 60 80 40 55 40 Z" fill="#4A90A4"/>
    <circle cx="55" cy="52" r="11" fill="#7EC8A4"/>
    <path d="M 55 66 C 42 66 38 80 38 90 L 72 90 C 72 80 68 66 55 66 Z" fill="#7EC8A4"/>
    <path d="M 80 28 C 80 28 77 22 70 22 C 60 22 60 34 70 42 L 80 50 L 90 42 C 100 34 100 22 90 22 C 83 22 80 28 80 28 Z" fill="#FF8A65"/>
  </g>
</svg>